<svg width="250" height="250" viewBox="0 0 250 250" fill="none" xmlns="http://www.w3.org/2000/svg">
<circle cx="125" cy="125" r="125" fill="#100F0E"/>
<path d="M72.9832 85L80.3272 53.32H96.0712C99.5912 53.32 102.375 54.136 104.423 55.768C106.471 57.4 107.495 59.688 107.495 62.632C107.495 65.256 106.871 67.448 105.623 69.208C104.407 70.936 102.711 72.232 100.535 73.096C98.3912 73.96 95.9112 74.392 93.0952 74.392L91.7032 74.872H85.6072L87.2872 67.528H92.0392C92.9672 67.528 93.7672 67.384 94.4392 67.096C95.1112 66.808 95.6392 66.392 96.0232 65.848C96.4072 65.304 96.5992 64.68 96.5992 63.976C96.5992 62.984 96.2632 62.296 95.5912 61.912C94.9512 61.496 94.1672 61.288 93.2392 61.288H89.3992L83.9272 85H72.9832ZM93.6712 85L88.6312 71.128L98.4712 69.496L104.759 85H93.6712ZM122.631 85.48C119.207 85.48 116.343 84.888 114.039 83.704C111.767 82.52 110.167 80.824 109.239 78.616C108.343 76.408 108.247 73.784 108.951 70.744L113.031 53.32H124.263L119.991 72.04C119.767 73.096 119.767 74.008 119.991 74.776C120.215 75.512 120.631 76.088 121.239 76.504C121.879 76.888 122.679 77.08 123.639 77.08C124.855 77.08 125.799 76.728 126.471 76.024C127.143 75.32 127.655 74.168 128.007 72.568L132.471 53.32H143.655L139.239 72.232C138.151 76.808 136.311 80.168 133.719 82.312C131.127 84.424 127.431 85.48 122.631 85.48ZM140.436 85L147.78 53.32H159.396L163.668 68.248L164.772 72.712H164.868L166.356 65.08L169.092 53.32H178.788L171.444 85H159.972L155.508 70.6L154.308 66.088H154.212L152.868 73.24L150.132 85H140.436ZM60.9663 141.48C58.0543 141.48 55.4783 140.92 53.2383 139.8C51.0303 138.648 49.2863 137.048 48.0063 135C46.7583 132.92 46.1343 130.504 46.1343 127.752C46.1343 124.84 46.5343 122.232 47.3343 119.928C48.1663 117.592 49.3503 115.608 50.8863 113.976C52.4223 112.312 54.2943 111.048 56.5023 110.184C58.7103 109.288 61.2063 108.84 63.9903 108.84C66.6143 108.84 68.9343 109.288 70.9503 110.184C72.9983 111.08 74.6463 112.376 75.8943 114.072C77.1743 115.736 77.9583 117.752 78.2463 120.12L67.6863 122.184C67.7503 120.584 67.4783 119.368 66.8703 118.536C66.2943 117.672 65.3023 117.24 63.8943 117.24C62.7103 117.24 61.6863 117.608 60.8223 118.344C59.9903 119.08 59.3023 120.024 58.7583 121.176C58.2143 122.296 57.8143 123.496 57.5583 124.776C57.3343 126.056 57.2223 127.256 57.2223 128.376C57.2223 129.336 57.3663 130.168 57.6543 130.872C57.9743 131.576 58.4543 132.12 59.0943 132.504C59.7343 132.888 60.5823 133.08 61.6383 133.08C62.9503 133.08 63.9743 132.664 64.7103 131.832C65.4783 131 66.1183 129.928 66.6303 128.616L76.4703 132.216C75.0623 135.128 73.0783 137.4 70.5183 139.032C67.9903 140.664 64.8063 141.48 60.9663 141.48ZM90.3059 132.792H105.138L103.218 141H77.2019L84.5459 109.32H95.7299L90.3059 132.792ZM123.053 141.48C119.629 141.48 116.765 140.888 114.461 139.704C112.189 138.52 110.589 136.824 109.661 134.616C108.765 132.408 108.669 129.784 109.373 126.744L113.453 109.32H124.685L120.413 128.04C120.189 129.096 120.189 130.008 120.413 130.776C120.637 131.512 121.053 132.088 121.661 132.504C122.301 132.888 123.101 133.08 124.061 133.08C125.277 133.08 126.221 132.728 126.893 132.024C127.565 131.32 128.077 130.168 128.429 128.568L132.893 109.32H144.077L139.661 128.232C138.573 132.808 136.733 136.168 134.141 138.312C131.549 140.424 127.853 141.48 123.053 141.48ZM140.858 141L148.202 109.32H165.194C168.33 109.32 170.81 109.992 172.634 111.336C174.49 112.648 175.418 114.488 175.418 116.856C175.418 118.552 175.034 119.992 174.266 121.176C173.53 122.36 172.554 123.304 171.338 124.008C170.122 124.68 168.778 125.128 167.306 125.352V125.4C169.194 125.528 170.73 126.136 171.914 127.224C173.13 128.312 173.738 129.752 173.738 131.544C173.738 133.688 173.21 135.464 172.154 136.872C171.13 138.248 169.674 139.288 167.786 139.992C165.898 140.664 163.706 141 161.21 141H140.858ZM153.242 133.704H158.858C159.978 133.704 160.858 133.512 161.498 133.128C162.17 132.712 162.506 132.056 162.506 131.16C162.506 130.712 162.394 130.344 162.17 130.056C161.978 129.736 161.674 129.496 161.258 129.336C160.874 129.176 160.378 129.096 159.77 129.096H154.346L153.242 133.704ZM156.074 121.608H160.49C161.258 121.608 161.898 121.512 162.41 121.32C162.954 121.096 163.354 120.792 163.61 120.408C163.898 120.024 164.042 119.576 164.042 119.064C164.042 118.392 163.802 117.88 163.322 117.528C162.874 117.176 162.234 117 161.402 117H157.13L156.074 121.608ZM190.971 141.624C188.827 141.624 186.731 141.384 184.683 140.904C182.667 140.392 180.779 139.624 179.019 138.6C177.259 137.576 175.675 136.28 174.267 134.712L179.835 128.088C180.731 129.112 181.803 130.024 183.051 130.824C184.299 131.624 185.595 132.264 186.939 132.744C188.283 133.192 189.547 133.416 190.731 133.416C191.339 133.416 191.803 133.352 192.123 133.224C192.475 133.064 192.731 132.872 192.891 132.648C193.051 132.424 193.131 132.168 193.131 131.88C193.131 131.528 192.955 131.24 192.603 131.016C192.283 130.76 191.739 130.504 190.971 130.248L186.507 128.664C185.195 128.184 183.947 127.56 182.763 126.792C181.579 125.992 180.619 124.984 179.883 123.768C179.147 122.552 178.779 121.096 178.779 119.4C178.779 117 179.387 115.032 180.603 113.496C181.819 111.928 183.467 110.76 185.547 109.992C187.627 109.224 189.963 108.84 192.555 108.84C196.011 108.84 198.939 109.4 201.339 110.52C203.739 111.608 205.867 113.048 207.723 114.84L201.819 121.272C201.019 120.472 200.123 119.768 199.131 119.16C198.139 118.52 197.099 118.024 196.011 117.672C194.923 117.32 193.819 117.144 192.699 117.144C192.187 117.144 191.755 117.192 191.403 117.288C191.083 117.384 190.843 117.528 190.683 117.72C190.523 117.912 190.443 118.152 190.443 118.44C190.443 118.824 190.683 119.16 191.163 119.448C191.643 119.704 192.283 119.976 193.083 120.264L197.163 121.704C199.627 122.568 201.515 123.704 202.827 125.112C204.171 126.488 204.843 128.36 204.843 130.728C204.843 133.032 204.235 135 203.019 136.632C201.803 138.264 200.155 139.512 198.075 140.376C195.995 141.208 193.627 141.624 190.971 141.624ZM78.2801 197L85.6241 165.32H112.216L110.296 173.528H94.8881L93.9761 177.464H106.168L104.44 185.048H92.2481L91.3841 188.792H107.08L105.16 197H78.2801ZM124.689 197.624C122.545 197.624 120.449 197.384 118.401 196.904C116.385 196.392 114.497 195.624 112.737 194.6C110.977 193.576 109.393 192.28 107.985 190.712L113.553 184.088C114.449 185.112 115.521 186.024 116.769 186.824C118.017 187.624 119.313 188.264 120.657 188.744C122.001 189.192 123.265 189.416 124.449 189.416C125.057 189.416 125.521 189.352 125.841 189.224C126.193 189.064 126.449 188.872 126.609 188.648C126.769 188.424 126.849 188.168 126.849 187.88C126.849 187.528 126.673 187.24 126.321 187.016C126.001 186.76 125.457 186.504 124.689 186.248L120.225 184.664C118.913 184.184 117.665 183.56 116.481 182.792C115.297 181.992 114.337 180.984 113.601 179.768C112.865 178.552 112.497 177.096 112.497 175.4C112.497 173 113.105 171.032 114.321 169.496C115.537 167.928 117.185 166.76 119.265 165.992C121.345 165.224 123.681 164.84 126.273 164.84C129.729 164.84 132.657 165.4 135.057 166.52C137.457 167.608 139.585 169.048 141.441 170.84L135.537 177.272C134.737 176.472 133.841 175.768 132.849 175.16C131.857 174.52 130.817 174.024 129.729 173.672C128.641 173.32 127.537 173.144 126.417 173.144C125.905 173.144 125.473 173.192 125.121 173.288C124.801 173.384 124.561 173.528 124.401 173.72C124.241 173.912 124.161 174.152 124.161 174.44C124.161 174.824 124.401 175.16 124.881 175.448C125.361 175.704 126.001 175.976 126.801 176.264L130.881 177.704C133.345 178.568 135.233 179.704 136.545 181.112C137.889 182.488 138.561 184.36 138.561 186.728C138.561 189.032 137.953 191 136.737 192.632C135.521 194.264 133.873 195.512 131.793 196.376C129.713 197.208 127.345 197.624 124.689 197.624ZM174.958 165.32L173.038 173.528H163.15L157.726 197H146.542L151.966 173.528H142.03L143.95 165.32H174.958Z" fill="#FFFAF0"/>
</svg>
